<?xml version="1.0" encoding="UTF-8" standalone="no"?>
<svg
   width="216pt"
   height="216pt"
   viewBox="0 0 216 216"
   version="1.1"
   id="svg14"
   sodipodi:docname="maze-stuck.svg"
   inkscape:version="1.4.2 (1:1.4.2+202505120738+ebf0e940d0)"
   xmlns:inkscape="http://www.inkscape.org/namespaces/inkscape"
   xmlns:sodipodi="http://sodipodi.sourceforge.net/DTD/sodipodi-0.dtd"
   xmlns:xlink="http://www.w3.org/1999/xlink"
   xmlns="http://www.w3.org/2000/svg"
   xmlns:svg="http://www.w3.org/2000/svg"
   xmlns:rdf="http://www.w3.org/1999/02/22-rdf-syntax-ns#"
   xmlns:cc="http://creativecommons.org/ns#"
   xmlns:dc="http://purl.org/dc/elements/1.1/">
  <sodipodi:namedview
     id="namedview14"
     pagecolor="#ffffff"
     bordercolor="#000000"
     borderopacity="0.25"
     inkscape:showpageshadow="2"
     inkscape:pageopacity="0.0"
     inkscape:pagecheckerboard="0"
     inkscape:deskcolor="#d1d1d1"
     inkscape:document-units="pt"
     inkscape:zoom="1.4548611"
     inkscape:cx="165.65155"
     inkscape:cy="142.28162"
     inkscape:window-width="1920"
     inkscape:window-height="1043"
     inkscape:window-x="0"
     inkscape:window-y="0"
     inkscape:window-maximized="1"
     inkscape:current-layer="svg14" />
  <metadata
     id="metadata1">
    <rdf:RDF>
      <cc:Work>
        <dc:type
           rdf:resource="http://purl.org/dc/dcmitype/StillImage" />
        <dc:date>2023-10-10T21:07:02.471918</dc:date>
        <dc:format>image/svg+xml</dc:format>
        <dc:creator>
          <cc:Agent>
            <dc:title>Matplotlib v3.5.1, https://matplotlib.org/</dc:title>
          </cc:Agent>
        </dc:creator>
      </cc:Work>
    </rdf:RDF>
  </metadata>
  <defs
     id="defs1">
    <style
       type="text/css"
       id="style1">*{stroke-linejoin: round; stroke-linecap: butt}</style>
    <clipPath
       id="SVGID_2_">
      <use
         style="overflow:visible"
         xlink:href="#SVGID_1_"
         id="use5" />
    </clipPath>
    <clipPath
       id="SVGID_4_">
      <use
         style="overflow:visible"
         xlink:href="#SVGID_3_"
         id="use6" />
    </clipPath>
    <clipPath
       id="SVGID_6_">
      <use
         style="overflow:visible"
         xlink:href="#SVGID_5_"
         id="use7" />
    </clipPath>
    <clipPath
       id="SVGID_8_">
      <use
         style="overflow:visible"
         xlink:href="#SVGID_7_"
         id="use8" />
    </clipPath>
    <ellipse
       id="SVGID_1_"
       cx="13.69"
       cy="66.889999"
       rx="9.3299999"
       ry="17.34" />
    <ellipse
       id="SVGID_3_"
       cx="13.69"
       cy="66.889999"
       rx="9.3299999"
       ry="17.34" />
    <ellipse
       id="SVGID_5_"
       cx="114.38"
       cy="66.889999"
       rx="9.3299999"
       ry="17.34" />
    <ellipse
       id="SVGID_7_"
       cx="114.38"
       cy="66.889999"
       rx="9.3299999"
       ry="17.34" />
  </defs>
  <g
     id="patch_1">
    <path
       d="M 0,216 H 216 V 0 H 0 Z"
       style="fill:#ffffff"
       id="path1" />
  </g>
  <g
     id="line2d_2">
    <path
       d="M 40.254545,29.454545"
       clip-path="url(#p03db528aa0)"
       style="fill:none;stroke:#008000;stroke-width:1.5;stroke-linecap:square"
       id="path3" />
    <defs
       id="defs3">
      <path
         id="m57af566826"
         d="m 0,-10 -2.24514,6.90983 H -9.510565 L -3.632713,1.18034 -5.877853,8.09017 0,3.81966 5.877853,8.09017 3.632713,1.18034 9.510565,-3.09017 H 2.24514 Z"
         style="stroke:#008000;stroke-linejoin:bevel" />
    </defs>
    <g
       clip-path="url(#p03db528aa0)"
       id="g3">
      <use
         xlink:href="#m57af566826"
         x="40.254543"
         y="29.454544"
         style="fill:#008000;stroke:#008000;stroke-linejoin:bevel"
         id="use3" />
    </g>
  </g>
  <g
     id="line2d_3">
    <path
       d="M 9.818182,9.818182 V 206.18182"
       clip-path="url(#p03db528aa0)"
       style="fill:none;stroke:#000000;stroke-width:3;stroke-linecap:round"
       id="path4" />
  </g>
  <g
     id="line2d_4">
    <path
       d="M 9.818182,206.18182 H 206.18182"
       clip-path="url(#p03db528aa0)"
       style="fill:none;stroke:#000000;stroke-width:3;stroke-linecap:round"
       id="path5" />
  </g>
  <g
     id="line2d_5">
    <path
       d="M 206.18182,206.18182 V 9.818182"
       clip-path="url(#p03db528aa0)"
       style="fill:none;stroke:#000000;stroke-width:3;stroke-linecap:round"
       id="path6" />
  </g>
  <g
     id="line2d_6">
    <path
       d="M 206.18182,9.818182 H 9.818182"
       clip-path="url(#p03db528aa0)"
       style="fill:none;stroke:#000000;stroke-width:3;stroke-linecap:round"
       id="path7" />
  </g>
  <g
     id="line2d_7">
    <path
       d="M 58.909091,157.09091 V 58.909091"
       clip-path="url(#p03db528aa0)"
       style="fill:none;stroke:#000000;stroke-width:3;stroke-linecap:round"
       id="path8" />
  </g>
  <g
     id="line2d_8">
    <path
       d="M 37.309091,117.81818 9.818182,78.545455"
       clip-path="url(#p03db528aa0)"
       style="fill:none;stroke:#000000;stroke-width:3;stroke-linecap:round"
       id="path9" />
  </g>
  <g
     id="line2d_9">
    <path
       d="M 58.909091,58.909091 9.818182,49.090909"
       clip-path="url(#p03db528aa0)"
       style="fill:none;stroke:#000000;stroke-width:3;stroke-linecap:round"
       id="path10" />
  </g>
  <g
     id="line2d_10">
    <path
       d="M 58.909091,58.909091 139.41818,34.363636"
       clip-path="url(#p03db528aa0)"
       style="fill:none;stroke:#000000;stroke-width:3;stroke-linecap:round"
       id="path11" />
  </g>
  <g
     id="line2d_11">
    <path
       d="M 79.527273,206.18182 112.90909,169.85454"
       clip-path="url(#p03db528aa0)"
       style="fill:none;stroke:#000000;stroke-width:3;stroke-linecap:round"
       id="path12" />
  </g>
  <g
     id="line2d_12">
    <path
       d="m 58.909091,108 98.181819,55.96364"
       clip-path="url(#p03db528aa0)"
       style="fill:none;stroke:#000000;stroke-width:3;stroke-linecap:round"
       id="path13" />
  </g>
  <g
     id="line2d_13">
    <path
       d="M 206.18182,157.09091 95.236364,98.181818"
       clip-path="url(#p03db528aa0)"
       style="fill:none;stroke:#000000;stroke-width:3;stroke-linecap:round"
       id="path14" />
  </g>
  <defs
     id="defs14">
    <clipPath
       id="p03db528aa0">
      <rect
         x="0"
         y="0"
         width="216"
         height="216"
         id="rect14" />
    </clipPath>
  </defs>
  <path
     style="fill:none;stroke:#999999;stroke-width:3;stroke-linecap:round;stroke-dasharray:9, 9"
     d="m 45.163636,190.47273 c 0,0 5.729351,-101.714347 -4.000344,-120.558557"
     id="path17"
     sodipodi:nodetypes="cc" />
  <g
     id="g26"
     transform="matrix(0.20027617,0,0,0.20027617,28.135408,62.183705)"
     style="stroke-width:3.74483">
    <path
       d="M 86.05,35.16 H 41.64 V 21.19 c 0,-6.51 5.27,-11.78 11.78,-11.78 h 20.85 c 6.51,0 11.78,5.27 11.78,11.78 z"
       style="fill:#e06055;stroke-width:3.74483"
       id="path1-6" />
    <path
       d="m 55.12,11.62 c -0.64,-1.89 -4.14,-0.77 -5.95,0.32 -1.81,1.09 -4.34,3.97 -3.43,4.7 0.9,0.72 2.38,-1.12 5.53,-1.99 2.93,-0.81 4.38,-1.47 3.85,-3.03 z"
       style="fill:#ffffff;stroke-width:3.74483"
       id="path2-7" />
    <path
       d="M 88.73,24.77 H 39.01 v -2.1 c 0,-1.79 1.45,-3.24 3.24,-3.24 H 85.5 c 1.79,0 3.24,1.45 3.24,3.24 v 2.1 z"
       style="fill:#ce453e;stroke-width:3.74483"
       id="path3-5" />
    <path
       d="m 119.73,58.05 2.06,-45.88 c 0.06,-1.39 1.21,-2.49 2.61,-2.49 v 0 c 1.44,0 2.61,1.17 2.61,2.61 v 58.98 c 0,0.83 -0.4,1.62 -1.07,2.11 l -7.41,5.41 z"
       style="fill:#78a3ad;stroke-width:3.74483"
       id="path4-3" />
    <path
       d="M 8.27,58.05 6.22,12.17 C 6.15,10.78 5,9.68 3.61,9.68 v 0 C 2.17,9.68 1,10.85 1,12.29 v 58.98 c 0,0.83 0.4,1.62 1.07,2.11 l 7.41,5.41 z"
       style="fill:#78a3ad;stroke-width:3.74483"
       id="path5-5" />
    <ellipse
       cx="13.69"
       cy="66.889999"
       rx="9.3299999"
       ry="17.34"
       style="fill:#e06055;stroke-width:3.74483"
       id="ellipse5" />
    <g
       id="g5"
       style="stroke-width:3.74483">
      <defs
         id="defs5">
        <ellipse
           id="ellipse14"
           cx="13.69"
           cy="66.889999"
           rx="9.3299999"
           ry="17.34" />
      </defs>
      <clipPath
         id="clipPath1">
        <use
           style="overflow:visible"
           xlink:href="#SVGID_1_"
           id="use1" />
      </clipPath>
      <rect
         height="34.689999"
         style="fill:#ce453e;stroke-width:3.74483"
         width="2.6199999"
         x="12.22"
         y="49.540001"
         clip-path="url(#SVGID_2_)"
         id="rect5" />
    </g>
    <g
       id="g6"
       style="stroke-width:3.74483">
      <defs
         id="defs6">
        <ellipse
           id="ellipse15"
           cx="13.69"
           cy="66.889999"
           rx="9.3299999"
           ry="17.34" />
      </defs>
      <clipPath
         id="clipPath2">
        <use
           style="overflow:visible"
           xlink:href="#SVGID_3_"
           id="use2-6" />
      </clipPath>
      <rect
         height="34.689999"
         style="fill:#ce453e;stroke-width:3.74483"
         transform="rotate(180,13.8448,66.88625)"
         width="2.6199999"
         x="12.54"
         y="49.540001"
         clip-path="url(#SVGID_4_)"
         id="rect6" />
    </g>
    <ellipse
       cx="114.38"
       cy="66.889999"
       rx="9.3299999"
       ry="17.34"
       style="fill:#e06055;stroke-width:3.74483"
       id="ellipse6" />
    <g
       id="g7"
       style="stroke-width:3.74483">
      <defs
         id="defs7">
        <ellipse
           id="ellipse16"
           cx="114.38"
           cy="66.889999"
           rx="9.3299999"
           ry="17.34" />
      </defs>
      <clipPath
         id="clipPath3">
        <use
           style="overflow:visible"
           xlink:href="#SVGID_5_"
           id="use3-2" />
      </clipPath>
      <rect
         height="34.689999"
         style="fill:#ce453e;stroke-width:3.74483"
         transform="rotate(180,114.5371,66.88625)"
         width="2.6199999"
         x="113.23"
         y="49.540001"
         clip-path="url(#SVGID_6_)"
         id="rect7" />
    </g>
    <g
       id="g8"
       style="stroke-width:3.74483">
      <defs
         id="defs8">
        <ellipse
           id="ellipse17"
           cx="114.38"
           cy="66.889999"
           rx="9.3299999"
           ry="17.34" />
      </defs>
      <clipPath
         id="clipPath4">
        <use
           style="overflow:visible"
           xlink:href="#SVGID_7_"
           id="use4" />
      </clipPath>
      <rect
         height="34.689999"
         style="fill:#ce453e;stroke-width:3.74483"
         width="2.6199999"
         x="112.91"
         y="49.540001"
         clip-path="url(#SVGID_8_)"
         id="rect8" />
    </g>
    <path
       d="M 111.12,35.15 100.05,24.33 C 98.02,22.35 95.31,21.24 92.47,21.24 H 35.73 c -2.83,0 -5.55,1.11 -7.58,3.09 L 17.08,35.15 c -2.09,2.04 -3.26,4.83 -3.26,7.75 V 56.32 83.5 96.92 c 0,2.92 1.18,5.71 3.26,7.75 l 11.07,10.82 c 2.03,1.98 4.74,3.09 7.58,3.09 h 56.74 c 2.83,0 5.55,-1.11 7.58,-3.09 l 11.07,-10.82 c 2.09,-2.04 3.26,-4.83 3.26,-7.75 V 83.51 56.33 42.9 c 0,-2.91 -1.18,-5.71 -3.26,-7.75 z"
       style="fill:#78a3ad;stroke-width:3.74483"
       id="path8-9" />
    <g
       id="g12"
       style="stroke-width:3.74483">
      <g
         id="g9"
         style="stroke-width:3.74483">
        <circle
           cx="40.279999"
           cy="55.889999"
           r="14.63"
           style="fill:#546e7a;stroke-width:3.74483"
           id="circle8" />
        <circle
           cx="40.279999"
           cy="55.889999"
           r="9.1999998"
           style="fill:#b8e9f4;stroke-width:3.74483"
           id="circle9" />
      </g>
      <g
         id="g11"
         style="stroke-width:3.74483">
        <circle
           cx="86.959999"
           cy="55.889999"
           r="14.63"
           style="fill:#546e7a;stroke-width:3.74483"
           id="circle10" />
        <circle
           cx="86.959999"
           cy="55.889999"
           r="9.1999998"
           style="fill:#b8e9f4;stroke-width:3.74483"
           id="circle11" />
      </g>
    </g>
    <path
       d="m 8.04,52.98 c 0,0 -4.96,11.58 -2.18,23.16 L 2.37,73.59 c 0,0 0.28,-5.78 1.99,-12.15 1.72,-6.39 3.68,-8.46 3.68,-8.46 z"
       style="fill:#64878e;stroke-width:3.74483"
       id="path12-1" />
    <path
       d="m 119.96,52.98 c 0,0 4.96,11.58 2.18,23.16 l 3.49,-2.55 c 0,0 -0.28,-5.78 -1.99,-12.15 -1.72,-6.39 -3.68,-8.46 -3.68,-8.46 z"
       style="fill:#64878e;stroke-width:3.74483"
       id="path13-2" />
    <path
       d="M 43.36,33.98"
       style="fill:#93bfc6;stroke-width:3.74483"
       id="path14-7" />
    <g
       id="g16"
       style="stroke-width:3.74483">
      <path
         d="m 61.85,65.7 -5.39,12.95 c -0.56,1.34 0.43,2.82 1.88,2.82 h 10.57 c 1.44,0 2.43,-1.46 1.89,-2.79 L 65.62,65.73 C 64.94,64.04 62.55,64.02 61.85,65.7 Z"
         style="fill:#e06055;stroke-width:3.74483"
         id="path15" />
      <path
         d="m 63.46,67.6 c -1.09,-0.31 -1.42,1.41 -2,2.92 -0.96,2.53 -1.22,3.71 -0.69,3.9 0.7,0.26 1.31,-0.54 2.25,-2.83 0.9,-2.15 1.36,-3.73 0.44,-3.99 z"
         style="fill:#eda29b;stroke-width:3.74483"
         id="path16" />
    </g>
    <g
       id="g19"
       style="stroke-width:3.74483">
      <line
         style="fill:#eceff1;stroke-width:3.74483"
         x1="48.389999"
         x2="48.389999"
         y1="90.330002"
         y2="100.54"
         id="line16" />
      <line
         style="fill:#eceff1;stroke-width:3.74483"
         x1="58.970001"
         x2="58.970001"
         y1="90.330002"
         y2="100.54"
         id="line17" />
      <line
         style="fill:#eceff1;stroke-width:3.74483"
         x1="69.559998"
         x2="69.559998"
         y1="90.330002"
         y2="100.54"
         id="line18" />
      <line
         style="fill:#eceff1;stroke-width:3.74483"
         x1="80.139999"
         x2="80.139999"
         y1="90.330002"
         y2="100.54"
         id="line19" />
      <path
         d="M 81.99,100.54 H 46.21 c -4.91,0 -8.9,-3.98 -8.9,-8.9 v -1.31 h 53.57 v 1.31 c 0,4.91 -3.98,8.9 -8.89,8.9 z"
         style="fill:#b8e9f4;stroke-width:3.74483"
         id="path19" />
    </g>
    <path
       d="M 82.87,100.54 H 45.33 c -4.42,0 -8.01,-3.59 -8.01,-8.01 v 0 c 0,-1.22 0.99,-2.2 2.2,-2.2 h 49.17 c 1.22,0 2.2,0.99 2.2,2.2 v 0 c -0.01,4.42 -3.59,8.01 -8.02,8.01 z"
       style="fill:#546e7a;stroke:#546e7a;stroke-width:14.9793;stroke-miterlimit:10"
       id="path20" />
    <path
       d="m 46.82,91.52 v 8.4 c 0,0 -9.5,-0.78 -9.5,-8.28 z"
       style="fill:#546e7a;stroke-width:3.74483"
       id="path21" />
    <path
       d="m 81.3,91.52 v 8.4 c 0,0 9.5,-0.78 9.5,-8.28 z"
       style="fill:#546e7a;stroke-width:3.74483"
       id="path22" />
    <g
       id="g25"
       style="stroke-width:3.74483">
      <rect
         height="5.96"
         style="fill:#b8e9f4;stroke-width:3.74483"
         width="6.1999998"
         x="50.709999"
         y="92.470001"
         id="rect22" />
      <rect
         height="5.96"
         style="fill:#b8e9f4;stroke-width:3.74483"
         width="6.1999998"
         x="60.52"
         y="92.470001"
         id="rect23" />
      <rect
         height="5.96"
         style="fill:#b8e9f4;stroke-width:3.74483"
         width="6.1999998"
         x="70.330002"
         y="92.470001"
         id="rect24" />
      <path
         d="m 80.38,98.43 h -0.24 v -5.96 h 6.2 v 0 c 0,3.29 -2.67,5.96 -5.96,5.96 z"
         style="fill:#b8e9f4;stroke-width:3.74483"
         id="path24" />
      <path
         d="m 47.11,98.43 h -0.24 c -3.29,0 -5.96,-2.67 -5.96,-5.96 v 0 h 6.2 z"
         style="fill:#b8e9f4;stroke-width:3.74483"
         id="path25" />
    </g>
  </g>
  <g
     id="line2d_1">
    <path
       d="M 45.163636,190.47273"
       clip-path="url(#p03db528aa0)"
       style="fill:none;stroke:#ff0000;stroke-width:1.5;stroke-linecap:square"
       id="path2" />
    <defs
       id="defs2">
      <path
         id="mbb3e91bae3"
         d="M 0,6 C 1.591219,6 3.117479,5.367802 4.242641,4.242641 5.367802,3.117479 6,1.591219 6,0 6,-1.591219 5.367802,-3.117479 4.242641,-4.242641 3.117479,-5.367802 1.591219,-6 0,-6 -1.591219,-6 -3.117479,-5.367802 -4.242641,-4.242641 -5.367802,-3.117479 -6,-1.591219 -6,0 -6,1.591219 -5.367802,3.117479 -4.242641,4.242641 -3.117479,5.367802 -1.591219,6 0,6 Z"
         style="stroke:#ff0000" />
    </defs>
    <g
       clip-path="url(#p03db528aa0)"
       id="g2">
      <use
         xlink:href="#mbb3e91bae3"
         x="45.163635"
         y="190.47273"
         style="fill:#ff0000;stroke:#ff0000"
         id="use2" />
    </g>
  </g>
</svg>
