<?xml version="1.0" encoding="UTF-8" standalone="no"?>
<svg
   xmlns:dc="http://purl.org/dc/elements/1.1/"
   xmlns:cc="http://creativecommons.org/ns#"
   xmlns:rdf="http://www.w3.org/1999/02/22-rdf-syntax-ns#"
   xmlns:svg="http://www.w3.org/2000/svg"
   xmlns="http://www.w3.org/2000/svg"
   width="48.775814"
   height="43.867577"
   viewBox="0 0 12.905267 11.60663"
   version="1.1"
   id="svg1205">
  <defs
     id="defs1199" />
  <metadata
     id="metadata1202">
    <rdf:RDF>
      <cc:Work
         rdf:about="">
        <dc:format>image/svg+xml</dc:format>
        <dc:type
           rdf:resource="http://purl.org/dc/dcmitype/StillImage" />
        <dc:title />
      </cc:Work>
    </rdf:RDF>
  </metadata>
  <g
     id="layer1"
     transform="translate(-177.24379,-57.607383)">
    <path
       id="path4335"
       d="m 183.69298,57.607466 c -5.67484,0 -6.16369,0.0046 -6.26236,0.06284 -0.0589,0.03477 -0.12561,0.104055 -0.14828,0.153788 -0.0556,0.122002 -0.0503,0.318832 0.011,0.39963 0.0784,0.103203 0.30547,0.1808 0.52917,0.1808 h 0.20394 l 0.0254,0.383094 c 0.10295,1.570874 0.94115,3.145818 2.16022,4.058598 0.0976,0.07308 0.17858,0.15831 0.17914,0.189617 -1.14175,1.767781 -2.38262,9.140323 -0.43766,3.563609 h 1.67293 1.67294 l 0.0369,0.758472 c -0.0391,2.520964 0.87179,2.402095 0.79816,0.07937 l -0.0413,-0.837847 h 1.60403 c 0.88215,0 1.60405,0.01341 1.60404,0.02977 0.90792,5.154648 1.58023,0.169627 -0.30372,-3.561402 -1e-5,-0.03474 0.13198,-0.174535 0.2938,-0.310334 0.65612,-0.550641 1.05135,-1.045981 1.453,-1.823421 0.34171,-0.661416 0.54571,-1.398699 0.59311,-2.140371 l 0.0248,-0.389156 h 0.21993 c 0.25644,0 0.37627,-0.03858 0.48617,-0.156546 0.0872,-0.09356 0.10831,-0.32694 0.0408,-0.453099 -0.10558,-0.197305 0.22202,-0.187413 -6.41614,-0.187413 z m -4.83251,1.201649 c 0.31763,0.03667 1.08214,0.322461 2.11612,0.322461 1.37863,0 2.54109,-0.0905 2.5411,0.160954 0,0.251449 -1.33555,0.331832 -2.71418,0.331832 -1.37864,0 -2.10564,-0.06132 -2.10564,-0.7491 0,-0.06287 0.0567,-0.07837 0.1626,-0.06615 z m 9.76919,0 c 0.10588,-0.01222 0.16206,0.0033 0.16206,0.06615 0,0.687778 -0.72645,0.7491 -2.10509,0.7491 -1.37863,0 -2.71419,-0.08038 -2.71419,-0.331832 0,-0.251454 1.16248,-0.160954 2.54111,-0.160954 1.03398,0 1.79849,-0.285795 2.11611,-0.322461 z m -9.50405,1.031875 c 0.27663,0.02902 0.94216,0.255213 1.84271,0.255213 1.20074,0 2.21368,-0.07166 2.21368,0.127331 0,0.19898 -1.16342,0.262929 -2.36416,0.262929 -1.20074,0 -1.83389,-0.04884 -1.83389,-0.593107 0,-0.04975 0.0494,-0.06204 0.14166,-0.05237 z m 9.23892,0 c 0.0922,-0.0097 0.14111,0.0025 0.14111,0.05237 0,0.544266 -0.6326,0.593107 -1.83334,0.593107 -1.20074,0 -2.36416,-0.06395 -2.36416,-0.262929 0,-0.19899 1.01238,-0.127331 2.21312,-0.127331 0.90056,0 1.56663,-0.226195 1.84327,-0.255213 z m -8.9804,0.938169 c 0.23969,0.0223 0.81659,0.195681 1.59687,0.195681 1.04037,0 1.91823,-0.05477 1.91823,0.09812 0,0.152891 -1.00795,0.201743 -2.04832,0.201743 -1.04036,0 -1.58915,-0.03711 -1.58915,-0.455303 0,-0.03822 0.0425,-0.04767 0.12237,-0.04024 z m 8.72133,0 c 0.0799,-0.0074 0.12237,0.002 0.12237,0.04024 0,0.418188 -0.54824,0.455303 -1.58861,0.455303 -1.04037,0 -2.04831,-0.04885 -2.04831,-0.201743 0,-0.152889 0.87731,-0.09812 1.91768,-0.09812 0.78027,0 1.35717,-0.173386 1.59687,-0.19568 z m -8.12767,0.864305 c 0.18134,0.02382 0.61737,0.20891 1.20771,0.208912 0.78711,0 1.45135,-0.05809 1.45135,0.105281 0,0.163375 -0.7629,0.215524 -1.55002,0.215524 -0.78712,0 -1.20165,-0.03985 -1.20165,-0.486723 0,-0.04084 0.0322,-0.05094 0.0926,-0.04299 z m 7.53456,0 c 0.0605,-0.0079 0.0926,0.0022 0.0926,0.04299 0,0.446876 -0.41508,0.486723 -1.2022,0.486723 -0.78712,0 -1.54947,-0.05215 -1.54947,-0.215524 0,-0.163376 0.66368,-0.105281 1.4508,-0.105281 0.59034,0 1.02692,-0.185089 1.20826,-0.208912 z m -6.38583,1.821767 c 0.005,-0.0049 0.1726,0.05842 0.37207,0.140561 0.49622,0.204315 0.97327,0.335681 1.42103,0.391914 l 0.37648,0.0474 v 0.940372 0.816351 h -1.566 c -0.86127,0 -1.566,-0.0086 -1.566,-0.0193 0,-0.03032 0.95229,-2.307178 0.96242,-2.31731 z m 5.08992,0.01487 c 0.57156,0.762155 0.62333,1.39441 0.89463,2.310695 0,0.02585 -2.99952,0.0088 -3.00248,-0.01707 -0.002,-0.01566 -0.004,0.06933 -0.005,-0.817454 l -0.002,-0.91226 0.37207,-0.04686 c 0.43254,-0.05432 0.92776,-0.188809 1.3841,-0.376479 0.17748,-0.07298 0.33894,-0.136384 0.3583,-0.140561 z"
       style="fill:#f2f2f2;stroke-width:0.282223" />
  </g>
</svg>
